<svg width="126" height="32" viewBox="0 0 126 32" fill="none" xmlns="http://www.w3.org/2000/svg">
<g clip-path="url(#clip0_4789_109)">
<path d="M109.558 0H16.4501C6.70635 0 0 6.52087 0 16C0 25.4791 6.7043 32.0079 16.4501 32.0079H109.558C119.302 32.0079 126.008 25.4871 126.008 16.0079C126.008 6.52883 119.294 0 109.558 0Z" fill="#1B1B1B"/>
<path d="M112.505 13.6998C112.505 10.0398 110.214 8.02189 106.018 8.02189H98.6125C98.4691 8.01056 98.3249 8.02928 98.1895 8.0768C98.0542 8.12431 97.931 8.19951 97.8281 8.29731C97.7252 8.39511 97.6451 8.51324 97.5932 8.64372C97.5413 8.77421 97.5187 8.91401 97.5271 9.0537V22.9424C97.5271 23.5766 97.9604 23.9742 98.6125 23.9742H101.918C102.061 23.9855 102.205 23.9668 102.34 23.9193C102.476 23.8718 102.599 23.7966 102.702 23.6988C102.805 23.601 102.885 23.4828 102.937 23.3523C102.989 23.2219 103.011 23.0821 103.003 22.9424V19.4931C103.001 19.4617 103.006 19.4303 103.017 19.4009C103.028 19.3715 103.046 19.3448 103.069 19.3226C103.092 19.3004 103.119 19.2832 103.149 19.2722C103.18 19.2611 103.212 19.2564 103.244 19.2585H104.137C104.428 22.3082 105.977 23.9742 108.89 23.9742H111.205C111.349 23.9855 111.493 23.9668 111.628 23.9193C111.764 23.8718 111.887 23.7966 111.99 23.6988C112.093 23.601 112.173 23.4828 112.225 23.3523C112.277 23.2219 112.299 23.0821 112.291 22.9424V20.8549C112.291 20.2207 111.858 19.8231 111.205 19.8231H109.83C109.131 19.8231 108.695 19.5189 108.624 18.9086C111.154 18.2525 112.505 16.5149 112.505 13.6998ZM105.728 15.4891H103.244C103.212 15.4911 103.18 15.4865 103.149 15.4754C103.119 15.4643 103.092 15.4471 103.069 15.4249C103.046 15.4027 103.028 15.376 103.017 15.3466C103.006 15.3172 103.001 15.2858 103.003 15.2545V12.6203C103.001 12.589 103.006 12.5575 103.017 12.5282C103.028 12.4988 103.046 12.4721 103.069 12.4499C103.092 12.4277 103.119 12.4105 103.149 12.3994C103.18 12.3883 103.212 12.3837 103.244 12.3857H105.728C106.788 12.3857 107.32 13.1372 107.32 13.9344C107.329 14.1401 107.294 14.3454 107.217 14.5372C107.14 14.7291 107.023 14.9033 106.873 15.0489C106.724 15.1945 106.545 15.3083 106.347 15.383C106.15 15.4577 105.939 15.4918 105.728 15.4831V15.4891Z" fill="white"/>
<path d="M88.4109 12.0359H94.5858C94.7292 12.0472 94.8734 12.0285 95.0087 11.9809C95.144 11.9334 95.2673 11.8582 95.3702 11.7604C95.4731 11.6626 95.5532 11.5445 95.6051 11.414C95.657 11.2835 95.6796 11.1437 95.6712 11.004V9.05773C95.6712 8.42353 95.2379 8.02592 94.5858 8.02592H83.9571C83.8137 8.01459 83.6695 8.03331 83.5342 8.08083C83.3988 8.12834 83.2756 8.20353 83.1727 8.30133C83.0698 8.39914 82.9897 8.51727 82.9378 8.64775C82.8859 8.77824 82.8633 8.91804 82.8717 9.05773V22.9464C82.8717 23.5806 83.305 23.9782 83.9571 23.9782H94.9231C95.0665 23.9895 95.2107 23.9708 95.346 23.9233C95.4813 23.8758 95.6046 23.8006 95.7074 23.7028C95.8103 23.605 95.8904 23.4868 95.9423 23.3564C95.9943 23.2259 96.0168 23.0861 96.0085 22.9464V21.0001C96.0085 20.3659 95.5751 19.9683 94.9231 19.9683H88.4109C88.3787 19.9703 88.3464 19.9656 88.3162 19.9546C88.286 19.9435 88.2585 19.9263 88.2357 19.9041C88.2129 19.8819 88.1952 19.8552 88.1838 19.8258C88.1724 19.7964 88.1676 19.765 88.1697 19.7337V18.0915C88.1676 18.0602 88.1724 18.0288 88.1838 17.9994C88.1952 17.97 88.2129 17.9433 88.2357 17.9211C88.2585 17.8989 88.286 17.8817 88.3162 17.8706C88.3464 17.8595 88.3787 17.8549 88.4109 17.8569H93.4759C93.6193 17.8683 93.7635 17.8495 93.8988 17.802C94.0342 17.7545 94.1574 17.6793 94.2603 17.5815C94.3632 17.4837 94.4433 17.3656 94.4952 17.2351C94.5471 17.1046 94.5697 16.9648 94.5613 16.8251V15.0359C94.5613 14.4017 94.128 14.004 93.4759 14.004H88.4109C88.3787 14.0061 88.3464 14.0014 88.3162 13.9904C88.286 13.9793 88.2585 13.9621 88.2357 13.9399C88.2129 13.9177 88.1952 13.891 88.1838 13.8616C88.1724 13.8322 88.1676 13.8008 88.1697 13.7695V12.2744C88.1674 12.2428 88.1719 12.2111 88.1832 12.1814C88.1944 12.1517 88.212 12.1246 88.2348 12.102C88.2576 12.0795 88.2852 12.0619 88.3155 12.0505C88.3459 12.0391 88.3784 12.0341 88.4109 12.0359Z" fill="white"/>
<path d="M68.0056 8.02391C67.8623 8.01258 67.718 8.0313 67.5827 8.07882C67.4474 8.12633 67.3242 8.20153 67.2213 8.29933C67.1184 8.39713 67.0383 8.51526 66.9864 8.64574C66.9345 8.77623 66.9119 8.91603 66.9203 9.05572V22.9444C66.9203 23.5786 67.3536 23.9762 68.0056 23.9762H71.3108C71.4542 23.9875 71.5984 23.9688 71.7337 23.9213C71.869 23.8738 71.9923 23.7986 72.0951 23.7008C72.198 23.603 72.2781 23.4848 72.33 23.3544C72.382 23.2239 72.4045 23.0841 72.3961 22.9444V20.6919C72.3967 20.4991 72.4757 20.3143 72.6159 20.178C72.756 20.0416 72.946 19.9648 73.1443 19.9643H74.9041C79.1005 19.9643 81.3918 17.8529 81.3918 13.9822C81.3918 10.1114 79.1005 8.01794 74.9041 8.01794L68.0056 8.02391ZM76.2062 14.1472C76.2062 15.2267 75.4826 15.9066 74.3666 15.9066H72.6292C72.5969 15.9087 72.5646 15.904 72.5344 15.8929C72.5042 15.8819 72.4768 15.8647 72.4539 15.8424C72.4311 15.8202 72.4134 15.7936 72.402 15.7642C72.3907 15.7348 72.3859 15.7034 72.388 15.672V12.6223C72.3859 12.591 72.3907 12.5596 72.402 12.5302C72.4134 12.5008 72.4311 12.4741 72.4539 12.4519C72.4768 12.4297 72.5042 12.4125 72.5344 12.4014C72.5646 12.3903 72.5969 12.3857 72.6292 12.3877H74.3666C75.4826 12.3877 76.2062 13.0676 76.2062 14.1472Z" fill="white"/>
<path d="M60.6003 23.9762H63.6152C63.7586 23.9875 63.9028 23.9688 64.0381 23.9213C64.1735 23.8738 64.2967 23.7986 64.3996 23.7008C64.5025 23.603 64.5826 23.4848 64.6345 23.3544C64.6864 23.2239 64.709 23.0841 64.7006 22.9444V9.05572C64.7006 8.42153 64.2673 8.02391 63.6152 8.02391H59.3453C58.6218 8.02391 58.1394 8.3758 57.8737 9.14916L56.4756 13.1213C56.4398 13.2692 56.3537 13.401 56.2313 13.4954C56.1089 13.5897 55.9572 13.641 55.801 13.641C55.6448 13.641 55.4932 13.5897 55.3708 13.4954C55.2484 13.401 55.1623 13.2692 55.1265 13.1213L53.7284 9.14518C53.4627 8.37182 52.9803 8.01993 52.2568 8.01993H47.9868C47.8435 8.00861 47.6992 8.02733 47.5639 8.07484C47.4286 8.12236 47.3054 8.19755 47.2025 8.29535C47.0996 8.39315 47.0195 8.51129 46.9676 8.64177C46.9157 8.77226 46.8931 8.91206 46.9015 9.05174V22.9404C46.9015 23.5746 47.3348 23.9722 47.9868 23.9722H51.0017C51.1451 23.9836 51.2893 23.9648 51.4246 23.9173C51.56 23.8698 51.6832 23.7946 51.7861 23.6968C51.889 23.599 51.9691 23.4809 52.021 23.3504C52.0729 23.2199 52.0955 23.0801 52.0871 22.9404V15.3201C52.0871 15.2028 52.1362 15.1551 52.2077 15.1551C52.2418 15.1565 52.2744 15.1687 52.3007 15.1899C52.3269 15.2111 52.3452 15.2401 52.3528 15.2724L54.0902 20.1511C54.3069 20.7853 54.6441 21.0418 55.1511 21.0418H56.4531C56.96 21.0418 57.2972 20.7834 57.5139 20.1511L59.2513 15.2724C59.2586 15.2399 59.2768 15.2107 59.3031 15.1895C59.3294 15.1682 59.3623 15.1561 59.3964 15.1551C59.468 15.1551 59.517 15.2028 59.517 15.3201V22.9444C59.5087 23.0839 59.5312 23.2235 59.583 23.3538C59.6348 23.4842 59.7147 23.6022 59.8174 23.7C59.92 23.7977 60.043 23.873 60.1781 23.9206C60.3131 23.9683 60.4571 23.9872 60.6003 23.9762Z" fill="white"/>
<path d="M34.7479 8.02396H31.2731C31.1297 8.01263 30.9855 8.03136 30.8502 8.07887C30.7149 8.12638 30.5916 8.20158 30.4888 8.29938C30.3859 8.39718 30.3058 8.51531 30.2538 8.6458C30.2019 8.77629 30.1794 8.91609 30.1877 9.05577V17.5488C30.1877 21.9226 32.7693 24.3083 37.5686 24.3083C42.3679 24.3083 44.9495 21.9226 44.9495 17.5488V9.05577C44.9495 8.42158 44.5161 8.02396 43.8641 8.02396H40.3893C40.2459 8.01263 40.1017 8.03136 39.9664 8.07887C39.8311 8.12638 39.7078 8.20158 39.605 8.29938C39.5021 8.39718 39.422 8.51531 39.3701 8.6458C39.3181 8.77629 39.2956 8.91609 39.3039 9.05577V17.5707C39.3039 18.7635 38.6294 19.5409 37.5666 19.5409C36.5037 19.5409 35.8292 18.7675 35.8292 17.5707V9.05577C35.8375 8.91645 35.815 8.77701 35.7633 8.64683C35.7116 8.51664 35.6319 8.39872 35.5295 8.30099C35.4271 8.20325 35.3043 8.12797 35.1695 8.08019C35.0347 8.0324 34.8909 8.01323 34.7479 8.02396Z" fill="white"/>
<path d="M28.3542 12.2225C28.3542 9.66587 26.4247 8.02372 23.3853 8.02372H14.6533C14.51 8.01239 14.3658 8.03112 14.2304 8.07863C14.0951 8.12614 13.9719 8.20134 13.869 8.29914C13.7661 8.39694 13.686 8.51507 13.6341 8.64556C13.5822 8.77604 13.5596 8.91585 13.568 9.05553V22.9442C13.568 23.5784 14.0013 23.976 14.6533 23.976H23.4814C26.762 23.976 28.8836 22.1868 28.8836 19.4492C28.8836 17.5724 27.9904 16.2345 26.3021 15.5307C27.6531 15.0138 28.3542 13.8647 28.3542 12.2225ZM18.9703 11.9879C18.9681 11.9564 18.973 11.9248 18.9845 11.8953C18.996 11.8657 19.0138 11.839 19.0369 11.8167C19.06 11.7945 19.0877 11.7773 19.1181 11.7664C19.1486 11.7554 19.1811 11.751 19.2135 11.7533H21.8911C22.7353 11.7533 23.2667 12.2702 23.2667 13.0436C23.2667 13.817 22.7353 14.3339 21.8911 14.3339H19.2135C19.1813 14.3359 19.149 14.3312 19.1188 14.3202C19.0885 14.3091 19.0611 14.2919 19.0383 14.2697C19.0154 14.2475 18.9978 14.2208 18.9864 14.1914C18.975 14.162 18.9702 14.1306 18.9723 14.0993L18.9703 11.9879ZM22.1303 20.2464H19.2135C19.1813 20.2484 19.149 20.2438 19.1188 20.2327C19.0885 20.2216 19.0611 20.2044 19.0383 20.1822C19.0154 20.16 18.9978 20.1333 18.9864 20.1039C18.975 20.0745 18.9702 20.0431 18.9723 20.0118V17.8528C18.9702 17.8214 18.975 17.79 18.9864 17.7606C18.9978 17.7312 19.0154 17.7045 19.0383 17.6823C19.0611 17.6601 19.0885 17.6429 19.1188 17.6318C19.149 17.6208 19.1813 17.6161 19.2135 17.6182H22.1323C22.9765 17.6182 23.5079 18.1351 23.5079 18.9323C23.5079 19.7295 22.9744 20.2464 22.1303 20.2464Z" fill="white"/>
</g>
<defs>
<clipPath id="clip0_4789_109">
<rect width="126" height="32" fill="white"/>
</clipPath>
</defs>
</svg>
